<mxfile host="Electron" modified="2024-05-23T11:55:26.230Z" agent="Mozilla/5.0 (X11; Linux x86_64) AppleWebKit/537.36 (KHTML, like Gecko) draw.io/24.4.0 Chrome/120.0.6099.109 Electron/28.1.0 Safari/537.36" etag="zfb-lHQw5wyRAm6RHg5k" version="24.4.0" type="device">
  <diagram name="Pagina-1" id="si0wQ0l1tiX7Fm2jgNS1">
    <mxGraphModel dx="989" dy="604" grid="1" gridSize="10" guides="1" tooltips="1" connect="1" arrows="1" fold="1" page="1" pageScale="1" pageWidth="1169" pageHeight="827" math="0" shadow="0">
      <root>
        <mxCell id="0" />
        <mxCell id="1" parent="0" />
        <mxCell id="PpxTUW32u3jejx3pHS5a-6" style="edgeStyle=orthogonalEdgeStyle;rounded=0;orthogonalLoop=1;jettySize=auto;html=1;exitX=0.5;exitY=1;exitDx=0;exitDy=0;entryX=0.5;entryY=0;entryDx=0;entryDy=0;endArrow=none;endFill=0;" parent="1" source="hWBHpQZUgPuk90MrQrh4-1" target="PpxTUW32u3jejx3pHS5a-2" edge="1">
          <mxGeometry relative="1" as="geometry" />
        </mxCell>
        <mxCell id="hWBHpQZUgPuk90MrQrh4-1" value="Persona" style="whiteSpace=wrap;html=1;align=center;" parent="1" vertex="1">
          <mxGeometry x="302" y="211" width="100" height="40" as="geometry" />
        </mxCell>
        <mxCell id="GkS7eS-zbb-jv3KnlcKW-8" style="edgeStyle=orthogonalEdgeStyle;rounded=0;orthogonalLoop=1;jettySize=auto;html=1;exitX=1;exitY=0.5;exitDx=0;exitDy=0;entryX=0;entryY=0.5;entryDx=0;entryDy=0;endArrow=none;endFill=0;" parent="1" source="hWBHpQZUgPuk90MrQrh4-2" target="GkS7eS-zbb-jv3KnlcKW-6" edge="1">
          <mxGeometry relative="1" as="geometry" />
        </mxCell>
        <mxCell id="hWBHpQZUgPuk90MrQrh4-2" value="Medico" style="whiteSpace=wrap;html=1;align=center;" parent="1" vertex="1">
          <mxGeometry x="302" y="372" width="100" height="40" as="geometry" />
        </mxCell>
        <mxCell id="PpxTUW32u3jejx3pHS5a-4" style="edgeStyle=orthogonalEdgeStyle;rounded=0;orthogonalLoop=1;jettySize=auto;html=1;exitX=0.5;exitY=0;exitDx=0;exitDy=0;entryX=0.5;entryY=1;entryDx=0;entryDy=0;endArrow=none;endFill=0;" parent="1" source="hWBHpQZUgPuk90MrQrh4-3" target="PpxTUW32u3jejx3pHS5a-1" edge="1">
          <mxGeometry relative="1" as="geometry" />
        </mxCell>
        <mxCell id="hWBHpQZUgPuk90MrQrh4-3" value="Paziente" style="whiteSpace=wrap;html=1;align=center;" parent="1" vertex="1">
          <mxGeometry x="522" y="292" width="100" height="40" as="geometry" />
        </mxCell>
        <mxCell id="hWBHpQZUgPuk90MrQrh4-4" value="Prestazione" style="whiteSpace=wrap;html=1;align=center;" parent="1" vertex="1">
          <mxGeometry x="522" y="453" width="100" height="40" as="geometry" />
        </mxCell>
        <mxCell id="hWBHpQZUgPuk90MrQrh4-9" value="" style="endArrow=oval;html=1;rounded=0;endFill=0;" parent="1" edge="1">
          <mxGeometry width="50" height="50" relative="1" as="geometry">
            <mxPoint x="322" y="211" as="sourcePoint" />
            <mxPoint x="322" y="171" as="targetPoint" />
          </mxGeometry>
        </mxCell>
        <mxCell id="hWBHpQZUgPuk90MrQrh4-10" value="" style="endArrow=oval;html=1;rounded=0;endFill=0;" parent="1" edge="1">
          <mxGeometry width="50" height="50" relative="1" as="geometry">
            <mxPoint x="332" y="211" as="sourcePoint" />
            <mxPoint x="332" y="181" as="targetPoint" />
          </mxGeometry>
        </mxCell>
        <mxCell id="hWBHpQZUgPuk90MrQrh4-11" value="" style="endArrow=oval;html=1;rounded=0;endFill=0;" parent="1" edge="1">
          <mxGeometry width="50" height="50" relative="1" as="geometry">
            <mxPoint x="342" y="211" as="sourcePoint" />
            <mxPoint x="342" y="191" as="targetPoint" />
          </mxGeometry>
        </mxCell>
        <mxCell id="hWBHpQZUgPuk90MrQrh4-12" value="" style="endArrow=oval;html=1;rounded=0;endFill=1;" parent="1" edge="1">
          <mxGeometry width="50" height="50" relative="1" as="geometry">
            <mxPoint x="312" y="211" as="sourcePoint" />
            <mxPoint x="312" y="161" as="targetPoint" />
          </mxGeometry>
        </mxCell>
        <mxCell id="hWBHpQZUgPuk90MrQrh4-14" value="cf" style="text;html=1;align=center;verticalAlign=middle;whiteSpace=wrap;rounded=0;" parent="1" vertex="1">
          <mxGeometry x="293" y="156" width="60" height="10" as="geometry" />
        </mxCell>
        <mxCell id="hWBHpQZUgPuk90MrQrh4-15" value="nome" style="text;html=1;align=center;verticalAlign=middle;whiteSpace=wrap;rounded=0;" parent="1" vertex="1">
          <mxGeometry x="313" y="166" width="60" height="10" as="geometry" />
        </mxCell>
        <mxCell id="hWBHpQZUgPuk90MrQrh4-16" value="cognome" style="text;html=1;align=center;verticalAlign=middle;whiteSpace=wrap;rounded=0;" parent="1" vertex="1">
          <mxGeometry x="332" y="176" width="60" height="10" as="geometry" />
        </mxCell>
        <mxCell id="hWBHpQZUgPuk90MrQrh4-17" value="nascita" style="text;html=1;align=center;verticalAlign=middle;whiteSpace=wrap;rounded=0;" parent="1" vertex="1">
          <mxGeometry x="337" y="186" width="60" height="10" as="geometry" />
        </mxCell>
        <mxCell id="hWBHpQZUgPuk90MrQrh4-19" value="SpecSec" style="shape=rhombus;perimeter=rhombusPerimeter;whiteSpace=wrap;html=1;align=center;" parent="1" vertex="1">
          <mxGeometry x="357" y="472" width="90" height="40" as="geometry" />
        </mxCell>
        <mxCell id="hWBHpQZUgPuk90MrQrh4-21" value="SpecPrim" style="shape=rhombus;perimeter=rhombusPerimeter;whiteSpace=wrap;html=1;align=center;" parent="1" vertex="1">
          <mxGeometry x="257" y="472" width="90" height="40" as="geometry" />
        </mxCell>
        <mxCell id="hWBHpQZUgPuk90MrQrh4-22" value="Specializzazione" style="whiteSpace=wrap;html=1;align=center;" parent="1" vertex="1">
          <mxGeometry x="302" y="572" width="100" height="40" as="geometry" />
        </mxCell>
        <mxCell id="hWBHpQZUgPuk90MrQrh4-23" value="" style="endArrow=none;html=1;rounded=0;entryX=0.25;entryY=1;entryDx=0;entryDy=0;exitX=0.5;exitY=0;exitDx=0;exitDy=0;" parent="1" source="hWBHpQZUgPuk90MrQrh4-21" target="hWBHpQZUgPuk90MrQrh4-2" edge="1">
          <mxGeometry width="50" height="50" relative="1" as="geometry">
            <mxPoint x="272" y="532" as="sourcePoint" />
            <mxPoint x="322" y="482" as="targetPoint" />
            <Array as="points">
              <mxPoint x="302" y="442" />
              <mxPoint x="327" y="442" />
            </Array>
          </mxGeometry>
        </mxCell>
        <mxCell id="hWBHpQZUgPuk90MrQrh4-24" value="" style="endArrow=none;html=1;rounded=0;entryX=0.75;entryY=1;entryDx=0;entryDy=0;exitX=0.5;exitY=0;exitDx=0;exitDy=0;" parent="1" source="hWBHpQZUgPuk90MrQrh4-19" target="hWBHpQZUgPuk90MrQrh4-2" edge="1">
          <mxGeometry width="50" height="50" relative="1" as="geometry">
            <mxPoint x="312" y="482" as="sourcePoint" />
            <mxPoint x="337" y="422" as="targetPoint" />
            <Array as="points">
              <mxPoint x="402" y="442" />
              <mxPoint x="377" y="442" />
            </Array>
          </mxGeometry>
        </mxCell>
        <mxCell id="hWBHpQZUgPuk90MrQrh4-25" value="" style="endArrow=none;html=1;rounded=0;entryX=0.5;entryY=1;entryDx=0;entryDy=0;exitX=0.75;exitY=0;exitDx=0;exitDy=0;" parent="1" source="hWBHpQZUgPuk90MrQrh4-22" target="hWBHpQZUgPuk90MrQrh4-19" edge="1">
          <mxGeometry width="50" height="50" relative="1" as="geometry">
            <mxPoint x="412" y="482" as="sourcePoint" />
            <mxPoint x="387" y="422" as="targetPoint" />
            <Array as="points">
              <mxPoint x="377" y="542" />
              <mxPoint x="402" y="542" />
            </Array>
          </mxGeometry>
        </mxCell>
        <mxCell id="hWBHpQZUgPuk90MrQrh4-26" value="" style="endArrow=none;html=1;rounded=0;entryX=0.5;entryY=1;entryDx=0;entryDy=0;exitX=0.25;exitY=0;exitDx=0;exitDy=0;" parent="1" source="hWBHpQZUgPuk90MrQrh4-22" target="hWBHpQZUgPuk90MrQrh4-21" edge="1">
          <mxGeometry width="50" height="50" relative="1" as="geometry">
            <mxPoint x="387" y="582" as="sourcePoint" />
            <mxPoint x="412" y="522" as="targetPoint" />
            <Array as="points">
              <mxPoint x="327" y="542" />
              <mxPoint x="302" y="542" />
            </Array>
          </mxGeometry>
        </mxCell>
        <mxCell id="GkS7eS-zbb-jv3KnlcKW-14" style="edgeStyle=orthogonalEdgeStyle;rounded=0;orthogonalLoop=1;jettySize=auto;html=1;exitX=0.5;exitY=0;exitDx=0;exitDy=0;entryX=0.5;entryY=1;entryDx=0;entryDy=0;endArrow=none;endFill=0;" parent="1" source="hWBHpQZUgPuk90MrQrh4-31" target="hWBHpQZUgPuk90MrQrh4-40" edge="1">
          <mxGeometry relative="1" as="geometry" />
        </mxCell>
        <mxCell id="hWBHpQZUgPuk90MrQrh4-31" value="PostoLetto" style="whiteSpace=wrap;html=1;align=center;" parent="1" vertex="1">
          <mxGeometry x="762" y="487" width="100" height="40" as="geometry" />
        </mxCell>
        <mxCell id="hWBHpQZUgPuk90MrQrh4-33" value="" style="endArrow=oval;html=1;rounded=0;endFill=0;" parent="1" edge="1">
          <mxGeometry width="50" height="50" relative="1" as="geometry">
            <mxPoint x="522" y="302" as="sourcePoint" />
            <mxPoint x="492" y="302" as="targetPoint" />
          </mxGeometry>
        </mxCell>
        <mxCell id="hWBHpQZUgPuk90MrQrh4-34" value="" style="endArrow=oval;html=1;rounded=0;endFill=0;" parent="1" edge="1">
          <mxGeometry width="50" height="50" relative="1" as="geometry">
            <mxPoint x="522" y="311.76" as="sourcePoint" />
            <mxPoint x="492" y="311.76" as="targetPoint" />
          </mxGeometry>
        </mxCell>
        <mxCell id="hWBHpQZUgPuk90MrQrh4-35" value="" style="endArrow=oval;html=1;rounded=0;endFill=0;" parent="1" edge="1">
          <mxGeometry width="50" height="50" relative="1" as="geometry">
            <mxPoint x="522" y="321.76" as="sourcePoint" />
            <mxPoint x="492" y="321.76" as="targetPoint" />
          </mxGeometry>
        </mxCell>
        <mxCell id="hWBHpQZUgPuk90MrQrh4-36" value="telefono" style="text;html=1;align=center;verticalAlign=middle;whiteSpace=wrap;rounded=0;" parent="1" vertex="1">
          <mxGeometry x="434" y="297" width="60" height="10" as="geometry" />
        </mxCell>
        <mxCell id="hWBHpQZUgPuk90MrQrh4-37" value="email" style="text;html=1;align=center;verticalAlign=middle;whiteSpace=wrap;rounded=0;" parent="1" vertex="1">
          <mxGeometry x="440" y="307" width="60" height="10" as="geometry" />
        </mxCell>
        <mxCell id="hWBHpQZUgPuk90MrQrh4-38" value="casellaP" style="text;html=1;align=center;verticalAlign=middle;whiteSpace=wrap;rounded=0;" parent="1" vertex="1">
          <mxGeometry x="434" y="317" width="60" height="10" as="geometry" />
        </mxCell>
        <mxCell id="GkS7eS-zbb-jv3KnlcKW-13" style="edgeStyle=orthogonalEdgeStyle;rounded=0;orthogonalLoop=1;jettySize=auto;html=1;exitX=0.5;exitY=1;exitDx=0;exitDy=0;entryX=0.5;entryY=0;entryDx=0;entryDy=0;endArrow=none;endFill=0;" parent="1" source="hWBHpQZUgPuk90MrQrh4-39" target="hWBHpQZUgPuk90MrQrh4-40" edge="1">
          <mxGeometry relative="1" as="geometry" />
        </mxCell>
        <mxCell id="hWBHpQZUgPuk90MrQrh4-39" value="Stanza" style="whiteSpace=wrap;html=1;align=center;" parent="1" vertex="1">
          <mxGeometry x="762" y="291" width="100" height="40" as="geometry" />
        </mxCell>
        <mxCell id="hWBHpQZUgPuk90MrQrh4-40" value="Localizzato" style="shape=rhombus;perimeter=rhombusPerimeter;whiteSpace=wrap;html=1;align=center;" parent="1" vertex="1">
          <mxGeometry x="767" y="392" width="90" height="40" as="geometry" />
        </mxCell>
        <mxCell id="hWBHpQZUgPuk90MrQrh4-43" value="" style="endArrow=oval;html=1;rounded=0;endFill=0;" parent="1" edge="1">
          <mxGeometry width="50" height="50" relative="1" as="geometry">
            <mxPoint x="862" y="299" as="sourcePoint" />
            <mxPoint x="892" y="299" as="targetPoint" />
          </mxGeometry>
        </mxCell>
        <mxCell id="hWBHpQZUgPuk90MrQrh4-44" value="" style="endArrow=oval;html=1;rounded=0;endFill=0;" parent="1" edge="1">
          <mxGeometry width="50" height="50" relative="1" as="geometry">
            <mxPoint x="862" y="311.76" as="sourcePoint" />
            <mxPoint x="892" y="311.76" as="targetPoint" />
          </mxGeometry>
        </mxCell>
        <mxCell id="hWBHpQZUgPuk90MrQrh4-45" value="piano" style="text;html=1;align=center;verticalAlign=middle;whiteSpace=wrap;rounded=0;" parent="1" vertex="1">
          <mxGeometry x="884" y="293" width="60" height="10" as="geometry" />
        </mxCell>
        <mxCell id="hWBHpQZUgPuk90MrQrh4-46" value="settore" style="text;html=1;align=center;verticalAlign=middle;whiteSpace=wrap;rounded=0;" parent="1" vertex="1">
          <mxGeometry x="888" y="306" width="60" height="10" as="geometry" />
        </mxCell>
        <mxCell id="GkS7eS-zbb-jv3KnlcKW-2" style="edgeStyle=orthogonalEdgeStyle;rounded=0;orthogonalLoop=1;jettySize=auto;html=1;exitX=0.5;exitY=0;exitDx=0;exitDy=0;entryX=0.5;entryY=1;entryDx=0;entryDy=0;endArrow=none;endFill=0;" parent="1" source="hWBHpQZUgPuk90MrQrh4-47" target="hWBHpQZUgPuk90MrQrh4-3" edge="1">
          <mxGeometry relative="1" as="geometry" />
        </mxCell>
        <mxCell id="hWBHpQZUgPuk90MrQrh4-47" value="Richiede" style="shape=rhombus;perimeter=rhombusPerimeter;whiteSpace=wrap;html=1;align=center;" parent="1" vertex="1">
          <mxGeometry x="527" y="372" width="90" height="40" as="geometry" />
        </mxCell>
        <mxCell id="hWBHpQZUgPuk90MrQrh4-52" style="edgeStyle=orthogonalEdgeStyle;rounded=0;orthogonalLoop=1;jettySize=auto;html=1;exitX=0;exitY=0.5;exitDx=0;exitDy=0;entryX=1;entryY=0.5;entryDx=0;entryDy=0;endArrow=none;endFill=0;" parent="1" source="hWBHpQZUgPuk90MrQrh4-48" target="hWBHpQZUgPuk90MrQrh4-49" edge="1">
          <mxGeometry relative="1" as="geometry" />
        </mxCell>
        <mxCell id="hWBHpQZUgPuk90MrQrh4-48" value="PrestazioneEst" style="whiteSpace=wrap;html=1;align=center;" parent="1" vertex="1">
          <mxGeometry x="462" y="572" width="100" height="40" as="geometry" />
        </mxCell>
        <mxCell id="hWBHpQZUgPuk90MrQrh4-49" value="SpecPrEst" style="shape=rhombus;perimeter=rhombusPerimeter;whiteSpace=wrap;html=1;align=center;" parent="1" vertex="1">
          <mxGeometry x="307" y="632" width="90" height="40" as="geometry" />
        </mxCell>
        <mxCell id="hWBHpQZUgPuk90MrQrh4-53" style="edgeStyle=orthogonalEdgeStyle;rounded=0;orthogonalLoop=1;jettySize=auto;html=1;exitX=0.5;exitY=0;exitDx=0;exitDy=0;entryX=0.5;entryY=1;entryDx=0;entryDy=0;endArrow=none;endFill=0;" parent="1" source="hWBHpQZUgPuk90MrQrh4-49" target="hWBHpQZUgPuk90MrQrh4-22" edge="1">
          <mxGeometry relative="1" as="geometry" />
        </mxCell>
        <mxCell id="hWBHpQZUgPuk90MrQrh4-54" value="" style="endArrow=oval;html=1;rounded=0;endFill=0;exitX=0.1;exitY=0;exitDx=0;exitDy=0;exitPerimeter=0;" parent="1" source="hWBHpQZUgPuk90MrQrh4-48" edge="1">
          <mxGeometry width="50" height="50" relative="1" as="geometry">
            <mxPoint x="472" y="532" as="sourcePoint" />
            <mxPoint x="472" y="552" as="targetPoint" />
          </mxGeometry>
        </mxCell>
        <mxCell id="hWBHpQZUgPuk90MrQrh4-55" value="descrizione" style="text;html=1;align=center;verticalAlign=middle;whiteSpace=wrap;rounded=0;" parent="1" vertex="1">
          <mxGeometry x="405" y="547" width="60" height="10" as="geometry" />
        </mxCell>
        <mxCell id="hWBHpQZUgPuk90MrQrh4-57" value="numero" style="text;html=1;align=center;verticalAlign=middle;whiteSpace=wrap;rounded=0;" parent="1" vertex="1">
          <mxGeometry x="888" y="502" width="60" height="10" as="geometry" />
        </mxCell>
        <mxCell id="hWBHpQZUgPuk90MrQrh4-58" value="" style="endArrow=oval;html=1;rounded=0;endFill=0;" parent="1" edge="1">
          <mxGeometry width="50" height="50" relative="1" as="geometry">
            <mxPoint x="862" y="507" as="sourcePoint" />
            <mxPoint x="892" y="507" as="targetPoint" />
          </mxGeometry>
        </mxCell>
        <mxCell id="hWBHpQZUgPuk90MrQrh4-59" value="(1,N)" style="text;html=1;align=center;verticalAlign=middle;whiteSpace=wrap;rounded=0;" parent="1" vertex="1">
          <mxGeometry x="802" y="382" width="60" height="10" as="geometry" />
        </mxCell>
        <mxCell id="hWBHpQZUgPuk90MrQrh4-60" value="(1,1)" style="text;html=1;align=center;verticalAlign=middle;whiteSpace=wrap;rounded=0;" parent="1" vertex="1">
          <mxGeometry x="802" y="432" width="60" height="10" as="geometry" />
        </mxCell>
        <mxCell id="hWBHpQZUgPuk90MrQrh4-61" value="(1,N)" style="text;html=1;align=center;verticalAlign=middle;whiteSpace=wrap;rounded=0;" parent="1" vertex="1">
          <mxGeometry x="557" y="360" width="60" height="10" as="geometry" />
        </mxCell>
        <mxCell id="GkS7eS-zbb-jv3KnlcKW-4" style="edgeStyle=orthogonalEdgeStyle;rounded=0;orthogonalLoop=1;jettySize=auto;html=1;exitX=0.25;exitY=0;exitDx=0;exitDy=0;entryX=0.5;entryY=0;entryDx=0;entryDy=0;endArrow=none;endFill=0;" parent="1" source="hWBHpQZUgPuk90MrQrh4-62" target="hWBHpQZUgPuk90MrQrh4-4" edge="1">
          <mxGeometry relative="1" as="geometry">
            <Array as="points">
              <mxPoint x="572" y="432" />
              <mxPoint x="572" y="432" />
            </Array>
          </mxGeometry>
        </mxCell>
        <mxCell id="hWBHpQZUgPuk90MrQrh4-62" value="(1,1)" style="text;html=1;align=center;verticalAlign=middle;whiteSpace=wrap;rounded=0;" parent="1" vertex="1">
          <mxGeometry x="557" y="412" width="60" height="10" as="geometry" />
        </mxCell>
        <mxCell id="hWBHpQZUgPuk90MrQrh4-63" value="(1,1)" style="text;html=1;align=center;verticalAlign=middle;whiteSpace=wrap;rounded=0;" parent="1" vertex="1">
          <mxGeometry x="363" y="662" width="60" height="10" as="geometry" />
        </mxCell>
        <mxCell id="hWBHpQZUgPuk90MrQrh4-64" value="(0,N)" style="text;html=1;align=center;verticalAlign=middle;whiteSpace=wrap;rounded=0;" parent="1" vertex="1">
          <mxGeometry x="297" y="622" width="60" height="10" as="geometry" />
        </mxCell>
        <mxCell id="hWBHpQZUgPuk90MrQrh4-65" value="(0,N)" style="text;html=1;align=center;verticalAlign=middle;whiteSpace=wrap;rounded=0;" parent="1" vertex="1">
          <mxGeometry x="387" y="462" width="60" height="10" as="geometry" />
        </mxCell>
        <mxCell id="hWBHpQZUgPuk90MrQrh4-66" value="(0,N)" style="text;html=1;align=center;verticalAlign=middle;whiteSpace=wrap;rounded=0;" parent="1" vertex="1">
          <mxGeometry x="387" y="512" width="60" height="10" as="geometry" />
        </mxCell>
        <mxCell id="hWBHpQZUgPuk90MrQrh4-67" value="(0,N)" style="text;html=1;align=center;verticalAlign=middle;whiteSpace=wrap;rounded=0;" parent="1" vertex="1">
          <mxGeometry x="257" y="512" width="60" height="10" as="geometry" />
        </mxCell>
        <mxCell id="hWBHpQZUgPuk90MrQrh4-68" value="(1,1)" style="text;html=1;align=center;verticalAlign=middle;whiteSpace=wrap;rounded=0;" parent="1" vertex="1">
          <mxGeometry x="257" y="462" width="60" height="10" as="geometry" />
        </mxCell>
        <mxCell id="hWBHpQZUgPuk90MrQrh4-72" value="" style="endArrow=oval;html=1;rounded=0;endFill=1;" parent="1" edge="1">
          <mxGeometry width="50" height="50" relative="1" as="geometry">
            <mxPoint x="302" y="591.6700000000001" as="sourcePoint" />
            <mxPoint x="272" y="591.6700000000001" as="targetPoint" />
          </mxGeometry>
        </mxCell>
        <mxCell id="hWBHpQZUgPuk90MrQrh4-73" value="nome" style="text;html=1;align=center;verticalAlign=middle;whiteSpace=wrap;rounded=0;" parent="1" vertex="1">
          <mxGeometry x="219" y="586" width="60" height="10" as="geometry" />
        </mxCell>
        <mxCell id="hWBHpQZUgPuk90MrQrh4-74" value="" style="endArrow=oval;html=1;rounded=0;endFill=1;" parent="1" edge="1">
          <mxGeometry width="50" height="50" relative="1" as="geometry">
            <mxPoint x="783" y="472" as="sourcePoint" />
            <mxPoint x="872" y="522" as="targetPoint" />
            <Array as="points">
              <mxPoint x="872" y="472" />
            </Array>
          </mxGeometry>
        </mxCell>
        <mxCell id="hWBHpQZUgPuk90MrQrh4-75" value="" style="endArrow=oval;html=1;rounded=0;endFill=0;" parent="1" edge="1">
          <mxGeometry width="50" height="50" relative="1" as="geometry">
            <mxPoint x="862" y="322.76" as="sourcePoint" />
            <mxPoint x="892" y="322.76" as="targetPoint" />
          </mxGeometry>
        </mxCell>
        <mxCell id="hWBHpQZUgPuk90MrQrh4-76" value="numero" style="text;html=1;align=center;verticalAlign=middle;whiteSpace=wrap;rounded=0;" parent="1" vertex="1">
          <mxGeometry x="890" y="317" width="60" height="10" as="geometry" />
        </mxCell>
        <mxCell id="hWBHpQZUgPuk90MrQrh4-77" value="" style="endArrow=oval;html=1;rounded=0;endFill=1;" parent="1" edge="1">
          <mxGeometry width="50" height="50" relative="1" as="geometry">
            <mxPoint x="873" y="337" as="sourcePoint" />
            <mxPoint x="873" y="287" as="targetPoint" />
          </mxGeometry>
        </mxCell>
        <mxCell id="EFDo2chxuuUjdiycQVeV-1" value="" style="endArrow=oval;html=1;rounded=0;endFill=0;" parent="1" edge="1">
          <mxGeometry width="50" height="50" relative="1" as="geometry">
            <mxPoint x="622" y="462" as="sourcePoint" />
            <mxPoint x="652" y="462" as="targetPoint" />
          </mxGeometry>
        </mxCell>
        <mxCell id="EFDo2chxuuUjdiycQVeV-2" value="" style="endArrow=oval;html=1;rounded=0;endFill=0;" parent="1" edge="1">
          <mxGeometry width="50" height="50" relative="1" as="geometry">
            <mxPoint x="602" y="612" as="sourcePoint" />
            <mxPoint x="602" y="631" as="targetPoint" />
          </mxGeometry>
        </mxCell>
        <mxCell id="EFDo2chxuuUjdiycQVeV-3" value="inizio" style="text;html=1;align=center;verticalAlign=middle;whiteSpace=wrap;rounded=0;" parent="1" vertex="1">
          <mxGeometry x="644" y="456.9999999999999" width="60" height="10" as="geometry" />
        </mxCell>
        <mxCell id="EFDo2chxuuUjdiycQVeV-4" value="dimesso (0,1)" style="text;html=1;align=center;verticalAlign=middle;whiteSpace=wrap;rounded=0;" parent="1" vertex="1">
          <mxGeometry x="600.5" y="624.9999999999999" width="87" height="10" as="geometry" />
        </mxCell>
        <mxCell id="GkS7eS-zbb-jv3KnlcKW-7" style="edgeStyle=orthogonalEdgeStyle;rounded=0;orthogonalLoop=1;jettySize=auto;html=1;exitX=0.5;exitY=1;exitDx=0;exitDy=0;entryX=0.25;entryY=0;entryDx=0;entryDy=0;endArrow=none;endFill=0;" parent="1" source="GkS7eS-zbb-jv3KnlcKW-6" target="hWBHpQZUgPuk90MrQrh4-4" edge="1">
          <mxGeometry relative="1" as="geometry" />
        </mxCell>
        <mxCell id="GkS7eS-zbb-jv3KnlcKW-6" value="Eroga" style="shape=rhombus;perimeter=rhombusPerimeter;whiteSpace=wrap;html=1;align=center;" parent="1" vertex="1">
          <mxGeometry x="423" y="372" width="90" height="40" as="geometry" />
        </mxCell>
        <mxCell id="GkS7eS-zbb-jv3KnlcKW-16" style="edgeStyle=orthogonalEdgeStyle;rounded=0;orthogonalLoop=1;jettySize=auto;html=1;exitX=1;exitY=0.5;exitDx=0;exitDy=0;entryX=0;entryY=0.5;entryDx=0;entryDy=0;endArrow=none;endFill=0;" parent="1" source="GkS7eS-zbb-jv3KnlcKW-11" target="GkS7eS-zbb-jv3KnlcKW-15" edge="1">
          <mxGeometry relative="1" as="geometry" />
        </mxCell>
        <mxCell id="GkS7eS-zbb-jv3KnlcKW-11" value="Ricovero" style="whiteSpace=wrap;html=1;align=center;" parent="1" vertex="1">
          <mxGeometry x="582" y="572" width="100" height="40" as="geometry" />
        </mxCell>
        <mxCell id="GkS7eS-zbb-jv3KnlcKW-17" style="edgeStyle=orthogonalEdgeStyle;rounded=0;orthogonalLoop=1;jettySize=auto;html=1;exitX=0.5;exitY=0;exitDx=0;exitDy=0;entryX=0.5;entryY=1;entryDx=0;entryDy=0;endArrow=none;endFill=0;" parent="1" source="GkS7eS-zbb-jv3KnlcKW-15" target="hWBHpQZUgPuk90MrQrh4-31" edge="1">
          <mxGeometry relative="1" as="geometry" />
        </mxCell>
        <mxCell id="GkS7eS-zbb-jv3KnlcKW-15" value="PLRic" style="shape=rhombus;perimeter=rhombusPerimeter;whiteSpace=wrap;html=1;align=center;" parent="1" vertex="1">
          <mxGeometry x="767" y="572" width="90" height="40" as="geometry" />
        </mxCell>
        <mxCell id="GkS7eS-zbb-jv3KnlcKW-18" value="(1,1)" style="text;html=1;align=center;verticalAlign=middle;whiteSpace=wrap;rounded=0;" parent="1" vertex="1">
          <mxGeometry x="742" y="602" width="60" height="10" as="geometry" />
        </mxCell>
        <mxCell id="GkS7eS-zbb-jv3KnlcKW-19" value="(0,N)" style="text;html=1;align=center;verticalAlign=middle;whiteSpace=wrap;rounded=0;" parent="1" vertex="1">
          <mxGeometry x="802" y="562" width="60" height="10" as="geometry" />
        </mxCell>
        <mxCell id="GkS7eS-zbb-jv3KnlcKW-20" value="(0,N)" style="text;html=1;align=center;verticalAlign=middle;whiteSpace=wrap;rounded=0;" parent="1" vertex="1">
          <mxGeometry x="397" y="372" width="60" height="10" as="geometry" />
        </mxCell>
        <mxCell id="GkS7eS-zbb-jv3KnlcKW-21" value="(1,1)" style="text;html=1;align=center;verticalAlign=middle;whiteSpace=wrap;rounded=0;" parent="1" vertex="1">
          <mxGeometry x="457" y="412" width="60" height="10" as="geometry" />
        </mxCell>
        <mxCell id="PpxTUW32u3jejx3pHS5a-5" style="edgeStyle=orthogonalEdgeStyle;rounded=0;orthogonalLoop=1;jettySize=auto;html=1;exitX=0;exitY=0.5;exitDx=0;exitDy=0;entryX=1;entryY=0.5;entryDx=0;entryDy=0;endArrow=none;endFill=0;" parent="1" source="PpxTUW32u3jejx3pHS5a-1" target="hWBHpQZUgPuk90MrQrh4-1" edge="1">
          <mxGeometry relative="1" as="geometry" />
        </mxCell>
        <mxCell id="PpxTUW32u3jejx3pHS5a-1" value="PISAP" style="shape=rhombus;perimeter=rhombusPerimeter;whiteSpace=wrap;html=1;align=center;" parent="1" vertex="1">
          <mxGeometry x="527" y="211" width="90" height="40" as="geometry" />
        </mxCell>
        <mxCell id="PpxTUW32u3jejx3pHS5a-7" style="edgeStyle=orthogonalEdgeStyle;rounded=0;orthogonalLoop=1;jettySize=auto;html=1;exitX=0.5;exitY=1;exitDx=0;exitDy=0;entryX=0.5;entryY=0;entryDx=0;entryDy=0;endArrow=none;endFill=0;" parent="1" source="PpxTUW32u3jejx3pHS5a-2" target="hWBHpQZUgPuk90MrQrh4-2" edge="1">
          <mxGeometry relative="1" as="geometry" />
        </mxCell>
        <mxCell id="PpxTUW32u3jejx3pHS5a-2" value="MISAP" style="shape=rhombus;perimeter=rhombusPerimeter;whiteSpace=wrap;html=1;align=center;" parent="1" vertex="1">
          <mxGeometry x="307" y="291" width="90" height="40" as="geometry" />
        </mxCell>
        <mxCell id="PpxTUW32u3jejx3pHS5a-10" style="edgeStyle=orthogonalEdgeStyle;rounded=0;orthogonalLoop=1;jettySize=auto;html=1;exitX=0.5;exitY=0;exitDx=0;exitDy=0;entryX=0.25;entryY=1;entryDx=0;entryDy=0;endArrow=none;endFill=0;" parent="1" source="PpxTUW32u3jejx3pHS5a-8" target="hWBHpQZUgPuk90MrQrh4-4" edge="1">
          <mxGeometry relative="1" as="geometry">
            <Array as="points">
              <mxPoint x="512" y="501" />
              <mxPoint x="547" y="501" />
            </Array>
          </mxGeometry>
        </mxCell>
        <mxCell id="PpxTUW32u3jejx3pHS5a-13" style="edgeStyle=orthogonalEdgeStyle;rounded=0;orthogonalLoop=1;jettySize=auto;html=1;exitX=0.5;exitY=1;exitDx=0;exitDy=0;entryX=0.5;entryY=0;entryDx=0;entryDy=0;endArrow=none;endFill=0;" parent="1" source="PpxTUW32u3jejx3pHS5a-8" target="hWBHpQZUgPuk90MrQrh4-48" edge="1">
          <mxGeometry relative="1" as="geometry" />
        </mxCell>
        <mxCell id="PpxTUW32u3jejx3pHS5a-8" value="PEISAPr" style="shape=rhombus;perimeter=rhombusPerimeter;whiteSpace=wrap;html=1;align=center;" parent="1" vertex="1">
          <mxGeometry x="467" y="512" width="90" height="40" as="geometry" />
        </mxCell>
        <mxCell id="PpxTUW32u3jejx3pHS5a-11" style="edgeStyle=orthogonalEdgeStyle;rounded=0;orthogonalLoop=1;jettySize=auto;html=1;exitX=0.5;exitY=0;exitDx=0;exitDy=0;entryX=0.75;entryY=1;entryDx=0;entryDy=0;endArrow=none;endFill=0;" parent="1" source="PpxTUW32u3jejx3pHS5a-9" target="hWBHpQZUgPuk90MrQrh4-4" edge="1">
          <mxGeometry relative="1" as="geometry">
            <Array as="points">
              <mxPoint x="632" y="501" />
              <mxPoint x="597" y="501" />
            </Array>
          </mxGeometry>
        </mxCell>
        <mxCell id="PpxTUW32u3jejx3pHS5a-12" style="edgeStyle=orthogonalEdgeStyle;rounded=0;orthogonalLoop=1;jettySize=auto;html=1;exitX=0.5;exitY=1;exitDx=0;exitDy=0;entryX=0.5;entryY=0;entryDx=0;entryDy=0;endArrow=none;endFill=0;" parent="1" source="PpxTUW32u3jejx3pHS5a-9" target="GkS7eS-zbb-jv3KnlcKW-11" edge="1">
          <mxGeometry relative="1" as="geometry" />
        </mxCell>
        <mxCell id="PpxTUW32u3jejx3pHS5a-9" value="RiISAPr" style="shape=rhombus;perimeter=rhombusPerimeter;whiteSpace=wrap;html=1;align=center;" parent="1" vertex="1">
          <mxGeometry x="587" y="512" width="90" height="40" as="geometry" />
        </mxCell>
        <mxCell id="PpxTUW32u3jejx3pHS5a-14" value="(1,1)" style="text;html=1;align=center;verticalAlign=middle;whiteSpace=wrap;rounded=0;" parent="1" vertex="1">
          <mxGeometry x="337" y="331" width="60" height="10" as="geometry" />
        </mxCell>
        <mxCell id="PpxTUW32u3jejx3pHS5a-15" value="(1,1)" style="text;html=1;align=center;verticalAlign=middle;whiteSpace=wrap;rounded=0;" parent="1" vertex="1">
          <mxGeometry x="557" y="251" width="60" height="10" as="geometry" />
        </mxCell>
        <mxCell id="PpxTUW32u3jejx3pHS5a-16" value="(0,1)" style="text;html=1;align=center;verticalAlign=middle;whiteSpace=wrap;rounded=0;" parent="1" vertex="1">
          <mxGeometry x="494" y="211" width="60" height="10" as="geometry" />
        </mxCell>
        <mxCell id="PpxTUW32u3jejx3pHS5a-17" value="(0,1)" style="text;html=1;align=center;verticalAlign=middle;whiteSpace=wrap;rounded=0;" parent="1" vertex="1">
          <mxGeometry x="337" y="281" width="60" height="10" as="geometry" />
        </mxCell>
        <mxCell id="PpxTUW32u3jejx3pHS5a-18" value="(1,1)" style="text;html=1;align=center;verticalAlign=middle;whiteSpace=wrap;rounded=0;" parent="1" vertex="1">
          <mxGeometry x="500" y="552" width="60" height="10" as="geometry" />
        </mxCell>
        <mxCell id="PpxTUW32u3jejx3pHS5a-19" value="(1,1)" style="text;html=1;align=center;verticalAlign=middle;whiteSpace=wrap;rounded=0;" parent="1" vertex="1">
          <mxGeometry x="617" y="552" width="60" height="10" as="geometry" />
        </mxCell>
        <mxCell id="PpxTUW32u3jejx3pHS5a-21" value="(0,1)" style="text;html=1;align=center;verticalAlign=middle;whiteSpace=wrap;rounded=0;" parent="1" vertex="1">
          <mxGeometry x="467" y="502" width="60" height="10" as="geometry" />
        </mxCell>
        <mxCell id="PpxTUW32u3jejx3pHS5a-22" value="(0,1)" style="text;html=1;align=center;verticalAlign=middle;whiteSpace=wrap;rounded=0;" parent="1" vertex="1">
          <mxGeometry x="617" y="501" width="60" height="11" as="geometry" />
        </mxCell>
        <mxCell id="PpxTUW32u3jejx3pHS5a-23" value="" style="verticalLabelPosition=bottom;align=center;dashed=0;html=1;verticalAlign=top;shape=mxgraph.pid.fittings.orifice_plate2;" parent="1" vertex="1">
          <mxGeometry x="307" y="157" width="10" height="35" as="geometry" />
        </mxCell>
        <mxCell id="PpxTUW32u3jejx3pHS5a-24" value="" style="verticalLabelPosition=bottom;align=center;dashed=0;html=1;verticalAlign=top;shape=mxgraph.pid.fittings.orifice_plate2;rotation=90;" parent="1" vertex="1">
          <mxGeometry x="567" y="261" width="10" height="35" as="geometry" />
        </mxCell>
        <mxCell id="PpxTUW32u3jejx3pHS5a-25" value="" style="verticalLabelPosition=bottom;align=center;dashed=0;html=1;verticalAlign=top;shape=mxgraph.pid.fittings.orifice_plate2;rotation=90;" parent="1" vertex="1">
          <mxGeometry x="347" y="341" width="10" height="35" as="geometry" />
        </mxCell>
        <mxCell id="PpxTUW32u3jejx3pHS5a-28" value="" style="verticalLabelPosition=bottom;align=center;dashed=0;html=1;verticalAlign=top;shape=mxgraph.pid.fittings.orifice_plate2;rotation=-90;" parent="1" vertex="1">
          <mxGeometry x="280" y="574" width="10" height="35" as="geometry" />
        </mxCell>
        <mxCell id="PpxTUW32u3jejx3pHS5a-30" value="" style="verticalLabelPosition=bottom;align=center;dashed=0;html=1;verticalAlign=top;shape=mxgraph.pid.fittings.orifice_plate2;" parent="1" vertex="1">
          <mxGeometry x="868" y="281" width="10" height="35" as="geometry" />
        </mxCell>
        <mxCell id="PpxTUW32u3jejx3pHS5a-31" value="" style="verticalLabelPosition=bottom;align=center;dashed=0;html=1;verticalAlign=top;shape=mxgraph.pid.fittings.orifice_plate2;rotation=-180;" parent="1" vertex="1">
          <mxGeometry x="867" y="493" width="10" height="35" as="geometry" />
        </mxCell>
        <mxCell id="gKM1aYwlpyrm-9R1BCLI-1" value="" style="verticalLabelPosition=bottom;align=center;dashed=0;html=1;verticalAlign=top;shape=mxgraph.pid.fittings.orifice_plate2;rotation=-90;" parent="1" vertex="1">
          <mxGeometry x="503" y="547" width="10" height="35" as="geometry" />
        </mxCell>
        <mxCell id="gKM1aYwlpyrm-9R1BCLI-2" value="" style="verticalLabelPosition=bottom;align=center;dashed=0;html=1;verticalAlign=top;shape=mxgraph.pid.fittings.orifice_plate2;rotation=-90;" parent="1" vertex="1">
          <mxGeometry x="622" y="547" width="10" height="35" as="geometry" />
        </mxCell>
        <mxCell id="0d17eWB7rnc06eBJ37KD-1" value="" style="endArrow=none;html=1;rounded=0;" edge="1" parent="1">
          <mxGeometry width="50" height="50" relative="1" as="geometry">
            <mxPoint x="530" y="440" as="sourcePoint" />
            <mxPoint x="640" y="472" as="targetPoint" />
            <Array as="points">
              <mxPoint x="640" y="440" />
            </Array>
          </mxGeometry>
        </mxCell>
        <mxCell id="0d17eWB7rnc06eBJ37KD-3" value="" style="verticalLabelPosition=bottom;align=center;dashed=0;html=1;verticalAlign=top;shape=mxgraph.pid.fittings.orifice_plate2;rotation=-180;" vertex="1" parent="1">
          <mxGeometry x="635" y="449.5" width="10" height="35" as="geometry" />
        </mxCell>
      </root>
    </mxGraphModel>
  </diagram>
</mxfile>
